<?xml version="1.0" encoding="UTF-8"?>
<svg id="Recursos" xmlns="http://www.w3.org/2000/svg" viewBox="0 0 336.53 190.21">
  <defs>
    <style>
      .cls-1 {
        fill: #691824;
      }
    </style>
  </defs>
  <path class="cls-1" d="M198.84,162.26h25.01l-.76-133.45h-113.69v25.06l60.56-.07c-2.23,7.22-5.53,14.34-9.9,21.35-18.85,26.38-43.27,40.85-73.18,43.56h-1.92c.27,15.97,0,31.94.29,47.91.59-.01,1.18,0,1.77-.02.04-.04.06-.06.1-.1.02-.23.02-.45.04-.68,24.45-1.97,48.78-8.96,70.89-22.59,17.63-12.41,31.53-26.18,41.8-41.27-.54,10.97-1.01,19.06-1.01,19.06v41.25Z"/>
</svg>