<?xml version="1.0" encoding="UTF-8"?>
<svg id="logos" xmlns="http://www.w3.org/2000/svg" viewBox="0 0 336.53 190.21">
  <defs>
    <style>
      .cls-1 {
        fill: #191d20;
      }
    </style>
  </defs>
  <path class="cls-1" d="M74.71,134.65c0-3.28,2.5-5.67,5.88-5.67,1.71,0,3.2.59,4.21,1.73l-1.03,1c-.85-.9-1.9-1.31-3.12-1.31-2.5,0-4.36,1.81-4.36,4.26s1.85,4.26,4.36,4.26c1.22,0,2.27-.43,3.12-1.33l1.03,1c-1.01,1.14-2.5,1.74-4.23,1.74-3.36,0-5.86-2.39-5.86-5.67"/>
  <path class="cls-1" d="M91.47,134.65c0-3.25,2.5-5.67,5.91-5.67s5.88,2.41,5.88,5.67-2.5,5.67-5.88,5.67-5.91-2.42-5.91-5.67M101.67,134.65c0-2.45-1.84-4.26-4.29-4.26s-4.32,1.81-4.32,4.26,1.84,4.26,4.32,4.26,4.29-1.81,4.29-4.26"/>
  <polygon class="cls-1" points="120.75 129.1 120.75 140.19 119.45 140.19 112.8 131.92 112.8 140.19 111.22 140.19 111.22 129.1 112.52 129.1 119.17 137.37 119.17 129.1 120.75 129.1"/>
  <path class="cls-1" d="M128.61,138.93l.59-1.24c.82.74,2.23,1.28,3.66,1.28,1.92,0,2.74-.74,2.74-1.71,0-2.71-6.72-1-6.72-5.12,0-1.71,1.33-3.17,4.24-3.17,1.3,0,2.65.35,3.56.98l-.52,1.27c-.97-.62-2.06-.9-3.04-.9-1.88,0-2.69.79-2.69,1.76,0,2.71,6.71,1.01,6.71,5.08,0,1.7-1.36,3.15-4.29,3.15-1.7,0-3.36-.57-4.24-1.39"/>
  <path class="cls-1" d="M144.91,135.41v-6.3h1.58v6.24c0,2.46,1.12,3.57,3.12,3.57s3.14-1.11,3.14-3.57v-6.24h1.54v6.3c0,3.21-1.76,4.91-4.69,4.91s-4.69-1.7-4.69-4.91"/>
  <polygon class="cls-1" points="163.08 129.1 164.66 129.1 164.66 138.81 170.66 138.81 170.66 140.19 163.08 140.19 163.08 129.1"/>
  <polygon class="cls-1" points="179.2 130.48 175.4 130.48 175.4 129.1 184.57 129.1 184.57 130.48 180.77 130.48 180.77 140.19 179.2 140.19 179.2 130.48"/>
  <path class="cls-1" d="M190.78,134.65c0-3.25,2.5-5.67,5.91-5.67s5.88,2.41,5.88,5.67-2.5,5.67-5.88,5.67-5.91-2.42-5.91-5.67M200.98,134.65c0-2.45-1.84-4.26-4.29-4.26s-4.32,1.81-4.32,4.26,1.84,4.26,4.32,4.26,4.29-1.81,4.29-4.26"/>
  <path class="cls-1" d="M217.94,140.19l-2.39-3.41c-.22.02-.46.03-.7.03h-2.74v3.37h-1.58v-11.09h4.32c2.88,0,4.63,1.46,4.63,3.86,0,1.71-.89,2.95-2.44,3.5l2.63,3.72h-1.73ZM217.89,132.97c0-1.58-1.06-2.49-3.09-2.49h-2.69v4.99h2.69c2.03,0,3.09-.92,3.09-2.5"/>
  <path class="cls-1" d="M234.65,137.42h-5.89l-1.22,2.77h-1.63l5.02-11.09h1.57l5.04,11.09h-1.66l-1.22-2.77ZM234.1,136.15l-2.39-5.43-2.39,5.43h4.78Z"/>
  <polygon class="cls-1" points="67.16 98.26 45.24 66.84 35.81 66.84 35.81 112.04 45.24 112.04 45.24 81.28 66.7 112.04 76.46 112.04 76.46 66.84 67.16 66.84 67.16 98.26"/>
  <path class="cls-1" d="M145.3,86.06c1.67-.98,3.57-1.46,5.69-1.46,1.73,0,3.29.35,4.68,1.04,1.39.69,2.53,1.59,3.41,2.7.89,1.11,1.44,2.29,1.66,3.55h8.91c-.3-2.78-1.31-5.31-3.02-7.61-1.71-2.3-3.93-4.12-6.67-5.46-2.73-1.34-5.77-2.02-9.1-2.02-3.86,0-7.27.81-10.24,2.44-2.97,1.63-5.29,3.83-6.96,6.6-1.67,2.77-2.55,5.83-2.63,9.17-.05,3.43.72,6.53,2.31,9.3,1.58,2.77,3.83,4.96,6.73,6.57,2.9,1.6,6.29,2.41,10.14,2.41,3.25,0,6.28-.66,9.07-1.98,2.8-1.32,5.09-3.16,6.89-5.53,1.8-2.36,2.87-5.02,3.22-7.97h-8.65c-.65,2.21-1.88,4.04-3.67,5.49-1.8,1.45-4,2.18-6.6,2.18-2.12,0-3.99-.45-5.59-1.33-1.6-.89-2.82-2.12-3.64-3.71-.82-1.58-1.24-3.39-1.24-5.43.04-1.82.52-3.52,1.43-5.1.91-1.58,2.2-2.86,3.87-3.84"/>
  <path class="cls-1" d="M205.03,79.2c-3.04-1.6-6.5-2.41-10.41-2.41s-7.19.8-10.24,2.41c-3.06,1.6-5.46,3.79-7.22,6.57-1.76,2.77-2.66,5.85-2.7,9.23.04,3.34.92,6.41,2.63,9.2,1.71,2.8,4.09,5.01,7.12,6.63,3.03,1.63,6.44,2.44,10.21,2.44s7.25-.81,10.31-2.44c3.06-1.63,5.45-3.84,7.19-6.63,1.73-2.8,2.62-5.86,2.67-9.2,0-3.38-.84-6.46-2.5-9.23-1.67-2.78-4.02-4.97-7.06-6.57M203.7,100.34c-.93,1.6-2.22,2.87-3.87,3.8-1.65.93-3.51,1.4-5.59,1.4s-3.87-.47-5.49-1.4c-1.63-.93-2.87-2.2-3.74-3.8-.87-1.6-1.28-3.38-1.23-5.33.04-1.95.54-3.74,1.49-5.36.95-1.63,2.25-2.9,3.9-3.84,1.65-.93,3.51-1.4,5.59-1.4s3.91.47,5.49,1.4c1.58.93,2.81,2.2,3.68,3.8.87,1.6,1.28,3.4,1.23,5.4-.04,1.95-.53,3.73-1.46,5.33"/>
  <path class="cls-1" d="M266.62,76.79c-2.82,0-5.38.75-7.67,2.24-2.29,1.49-4.12,3.62-5.48,6.39-.53-1.75-1.27-3.27-2.25-4.53-2.12-2.73-5.22-4.1-9.3-4.1-2.86,0-5.44.75-7.74,2.24-1.8,1.17-3.31,2.74-4.55,4.69v-5.7h-9.62v34.01h9.62v-15.67c.09-3.73.97-6.64,2.63-8.75,1.67-2.1,3.85-3.15,6.54-3.15,2.08,0,3.6.74,4.55,2.21.95,1.47,1.43,3.51,1.43,6.11v19.25h9.62v-15.67c.09-3.77.93-6.7,2.54-8.78,1.6-2.08,3.75-3.12,6.44-3.12,2.12,0,3.67.7,4.65,2.11.98,1.41,1.46,3.48,1.46,6.21v19.25h9.69v-20.36c0-4.77-1.07-8.44-3.22-11.02-2.15-2.58-5.26-3.87-9.33-3.87"/>
  <path class="cls-1" d="M323.26,95.07c.04-3.16-.67-6.14-2.15-8.94-1.48-2.8-3.66-5.05-6.57-6.76-2.91-1.71-6.4-2.57-10.47-2.57-3.73,0-7.09.82-10.08,2.47-2.99,1.65-5.33,3.86-7.02,6.63-1.69,2.78-2.56,5.81-2.6,9.11-.09,3.51.68,6.65,2.31,9.43,1.62,2.78,3.93,4.94,6.92,6.5,2.99,1.56,6.46,2.34,10.41,2.34,3.51,0,6.78-.68,9.82-2.05,3.03-1.37,5.44-3.15,7.22-5.37l-7.02-4.23c-1.04,1.17-2.41,2.15-4.1,2.93-1.69.78-3.55,1.17-5.59,1.17-2.99,0-5.45-.69-7.38-2.08-1.93-1.39-2.98-3.27-3.15-5.66h29.07c.17-.48.3-1.45.39-2.93M293.93,92.21c.61-2.43,1.84-4.37,3.71-5.82,1.86-1.45,4.12-2.18,6.76-2.18,1.91,0,3.57.38,4.98,1.14,1.41.76,2.5,1.74,3.28,2.96.78,1.21,1.19,2.52,1.24,3.9h-19.97Z"/>
  <path class="cls-1" d="M120.62,88.76h-16.65v6.63h13.04c-.39,1.35-.95,2.61-1.73,3.74-1.21,1.76-2.75,3.12-4.62,4.1-1.86.98-3.92,1.46-6.18,1.46-2.6,0-4.9-.63-6.89-1.89-1.99-1.26-3.52-3.01-4.58-5.27-1.06-2.25-1.55-4.81-1.46-7.67.13-2.69.75-5.13,1.85-7.32,1.11-2.19,2.68-3.92,4.72-5.2,2.04-1.28,4.36-1.92,6.96-1.92,2.21,0,4.15.43,5.82,1.3,1.67.87,2.97,1.96,3.9,3.28.93,1.32,1.55,2.68,1.85,4.07h9.43c-.39-2.69-1.43-5.35-3.12-8-1.69-2.64-4.02-4.85-6.99-6.6-2.97-1.76-6.47-2.63-10.5-2.63-4.64,0-8.74,1.06-12.29,3.19-3.56,2.12-6.31,4.94-8.26,8.46-1.95,3.51-2.97,7.31-3.06,11.38-.09,4.34.78,8.29,2.6,11.87,1.82,3.58,4.46,6.4,7.93,8.45,3.47,2.06,7.5,3.09,12.1,3.09,4.25,0,8.02-.94,11.32-2.83,1.82-1.04,3.42-2.27,4.82-3.67v6.4h7.14v-24.52h-7.14v.1Z"/>
  <path class="cls-1" d="M14.75,97.16v14.78h11.16v-25.94c-6.17,0-11.16,5-11.16,11.16"/>
  <path class="cls-1" d="M25.92,66.73h-11.16v19.27c6.17,0,11.16-5,11.16-11.16v-8.11Z"/>
</svg>