<?xml version="1.0" encoding="UTF-8"?>
<svg id="logos" xmlns="http://www.w3.org/2000/svg" version="1.1" viewBox="0 0 336.5 142.5">
  <!-- Generator: Adobe Illustrator 30.6.0, SVG Export Plug-In . SVG Version: 2.1.4 Build 109)  -->
  <defs>
    <style>
      .st0 {
        fill: #691824;
      }

      .st1 {
        fill: #191d20;
      }
    </style>
  </defs>
  <path class="st1" d="M205.4,36.1c-6,10.8-9.1,22.4-9.4,34.8-.3,13.3,2.4,25.4,8,36.3s13.7,19.6,24.3,25.9,23,9.5,37,9.5,24.5-2.9,34.6-8.7c5.6-3.2,10.5-7,14.7-11.3v19.7h21.9v-75h-21.9v.3h-50.9v20.3h39.9c-1.2,4.1-2.9,8-5.3,11.5-3.7,5.4-8.4,9.5-14.1,12.5-5.7,3-12,4.5-18.9,4.5s-15-1.9-21.1-5.8c-6.1-3.8-10.8-9.2-14-16.1-3.3-6.9-4.7-14.7-4.5-23.5.4-8.2,2.3-15.7,5.7-22.4,3.4-6.7,8.2-12,14.4-15.9,6.2-3.9,13.3-5.9,21.3-5.9s12.7,1.3,17.8,4c5.1,2.6,9.1,6,11.9,10.1,2.9,4,4.7,8.2,5.7,12.4h28.8c-1.2-8.2-4.4-16.4-9.5-24.5-5.2-8.1-12.3-14.8-21.4-20.2-9.1-5.4-19.8-8.1-32.1-8.1s-26.7,3.3-37.6,9.8c-10.9,6.5-19.3,15.1-25.3,25.9"/>
  <path class="st0" d="M34.2,59C15.3,59,0,74.3,0,93.1v45.2h34.2s0-79.4,0-79.4Z"/>
  <path class="st0" d="M0,59c18.9,0,34.2-15.3,34.2-34.2V0H0v59Z"/>
  <polygon class="st1" points="84 138.7 84 44.6 149.7 138.7 179.5 138.7 179.5 .4 151.1 .4 151.1 96.5 84 .4 55.1 .4 55.1 138.7 84 138.7"/>
</svg>