<?xml version="1.0" encoding="UTF-8"?>
<svg id="logos" xmlns="http://www.w3.org/2000/svg" viewBox="0 0 336.53 190.21">
  <defs>
    <style>
      .cls-1 {
        fill: #191d20;
      }
    </style>
  </defs>
  <path class="cls-1" d="M84.98,167.89c-1.04-.57-1.86-1.36-2.45-2.36s-.89-2.13-.89-3.39.3-2.39.89-3.39,1.41-1.79,2.46-2.36c1.05-.57,2.22-.86,3.51-.86,1.01,0,1.93.17,2.77.51.84.34,1.55.84,2.14,1.51l-1.2,1.16c-.97-1.02-2.19-1.53-3.64-1.53-.96,0-1.83.22-2.61.65s-1.38,1.03-1.82,1.78c-.44.76-.66,1.6-.66,2.54s.22,1.78.66,2.54c.44.76,1.04,1.35,1.82,1.78.78.43,1.65.65,2.61.65,1.44,0,2.65-.52,3.64-1.55l1.2,1.16c-.59.67-1.31,1.17-2.15,1.52-.84.35-1.77.52-2.78.52-1.29,0-2.46-.29-3.5-.86"/>
  <path class="cls-1" d="M104.56,167.89c-1.05-.57-1.87-1.36-2.47-2.37-.6-1.01-.9-2.14-.9-3.38s.3-2.37.9-3.38c.6-1.01,1.42-1.8,2.47-2.38s2.22-.86,3.53-.86,2.46.29,3.51.86c1.05.57,1.87,1.36,2.46,2.37s.89,2.13.89,3.39-.3,2.39-.89,3.39c-.59,1-1.41,1.79-2.46,2.37-1.05.57-2.22.86-3.51.86s-2.48-.29-3.53-.86M110.65,166.46c.76-.43,1.35-1.02,1.79-1.78.44-.76.66-1.6.66-2.54s-.22-1.78-.66-2.54c-.44-.76-1.03-1.35-1.79-1.78-.76-.43-1.61-.65-2.56-.65s-1.81.22-2.58.65c-.77.43-1.37,1.03-1.81,1.78-.44.76-.66,1.61-.66,2.54s.22,1.78.66,2.54c.44.76,1.04,1.35,1.81,1.78.77.43,1.63.65,2.58.65s1.8-.21,2.56-.65"/>
  <polygon class="cls-1" points="135.36 155.67 135.36 168.6 133.85 168.6 126.09 158.96 126.09 168.6 124.24 168.6 124.24 155.67 125.75 155.67 133.51 165.32 133.51 155.67 135.36 155.67"/>
  <path class="cls-1" d="M146.66,168.3c-.91-.3-1.62-.69-2.13-1.17l.68-1.44c.49.44,1.12.8,1.89,1.08s1.56.42,2.38.42c1.07,0,1.87-.18,2.4-.54.53-.36.79-.85.79-1.45,0-.44-.14-.8-.43-1.08-.29-.28-.65-.49-1.07-.64-.42-.15-1.03-.31-1.8-.5-.97-.23-1.76-.47-2.36-.7-.6-.23-1.11-.59-1.53-1.08-.42-.49-.64-1.14-.64-1.97,0-.69.18-1.31.54-1.87.36-.55.92-1,1.65-1.33.74-.33,1.66-.5,2.75-.5.76,0,1.51.1,2.25.3.74.2,1.37.48,1.9.85l-.61,1.48c-.54-.34-1.12-.61-1.74-.78-.62-.18-1.22-.27-1.81-.27-1.05,0-1.83.19-2.36.57-.52.38-.78.88-.78,1.48,0,.44.15.8.44,1.08.3.28.66.49,1.1.65.44.15,1.03.32,1.78.49.97.23,1.76.47,2.35.7.59.23,1.1.59,1.52,1.07.43.48.64,1.13.64,1.94,0,.68-.18,1.3-.55,1.86-.37.56-.93,1.01-1.68,1.33-.75.33-1.67.49-2.77.49-.97,0-1.91-.15-2.82-.45"/>
  <path class="cls-1" d="M164.98,167.27c-.96-.98-1.44-2.4-1.44-4.25v-7.35h1.85v7.28c0,2.77,1.21,4.16,3.64,4.16,1.18,0,2.09-.34,2.72-1.03.63-.68.94-1.73.94-3.13v-7.28h1.79v7.35c0,1.86-.48,3.28-1.44,4.26-.96.98-2.3,1.47-4.03,1.47s-3.07-.49-4.03-1.48"/>
  <polygon class="cls-1" points="184.73 155.67 186.58 155.67 186.58 167 193.58 167 193.58 168.6 184.73 168.6 184.73 155.67"/>
  <polygon class="cls-1" points="203.54 157.28 199.11 157.28 199.11 155.67 209.8 155.67 209.8 157.28 205.37 157.28 205.37 168.6 203.54 168.6 203.54 157.28"/>
  <path class="cls-1" d="M220.41,167.89c-1.05-.57-1.87-1.36-2.47-2.37-.6-1.01-.9-2.14-.9-3.38s.3-2.37.9-3.38c.6-1.01,1.42-1.8,2.47-2.38,1.05-.57,2.22-.86,3.53-.86s2.46.29,3.51.86,1.87,1.36,2.46,2.37c.59,1,.89,2.13.89,3.39s-.3,2.39-.89,3.39c-.59,1-1.41,1.79-2.46,2.37s-2.22.86-3.51.86-2.48-.29-3.53-.86M226.5,166.46c.76-.43,1.35-1.02,1.79-1.78.44-.76.66-1.6.66-2.54s-.22-1.78-.66-2.54c-.44-.76-1.03-1.35-1.79-1.78s-1.61-.65-2.56-.65-1.81.22-2.58.65c-.77.43-1.37,1.03-1.81,1.78-.44.76-.66,1.61-.66,2.54s.22,1.78.66,2.54c.44.76,1.04,1.35,1.81,1.78.77.43,1.63.65,2.58.65s1.8-.21,2.56-.65"/>
  <path class="cls-1" d="M248.73,168.6l-2.79-3.97c-.35.03-.62.04-.81.04h-3.2v3.94h-1.85v-12.93h5.04c1.68,0,2.99.4,3.95,1.2s1.44,1.9,1.44,3.31c0,1-.25,1.85-.74,2.55-.49.7-1.2,1.21-2.11,1.53l3.07,4.34h-2.01ZM247.75,162.34c.61-.51.92-1.23.92-2.16s-.31-1.65-.92-2.15c-.62-.5-1.51-.75-2.68-.75h-3.14v5.82h3.14c1.17,0,2.06-.25,2.68-.76"/>
  <path class="cls-1" d="M268.23,165.37h-6.87l-1.42,3.23h-1.9l5.86-12.93h1.83l5.88,12.93h-1.94l-1.42-3.23ZM267.58,163.89l-2.79-6.34-2.79,6.34h5.58Z"/>
  <rect class="cls-1" x="81.91" y="22.31" width="12.21" height="56.96"/>
  <polygon class="cls-1" points="115.59 40.5 142.64 79.27 154.93 79.27 154.93 22.31 143.21 22.31 143.21 61.89 115.59 22.31 103.71 22.31 103.71 79.27 115.59 79.27 115.59 40.5"/>
  <path class="cls-1" d="M210.77,72.44v7.54h8.33v-30.06h-29.51v8.36h16.44c-.49,1.71-1.2,3.29-2.18,4.71-1.53,2.21-3.47,3.93-5.82,5.16-2.35,1.23-4.95,1.84-7.79,1.84-3.28,0-6.17-.79-8.69-2.38-2.51-1.58-4.44-3.8-5.78-6.64-1.34-2.84-1.95-6.07-1.84-9.67.16-3.39.94-6.46,2.34-9.22,1.39-2.76,3.37-4.94,5.94-6.56,2.57-1.61,5.49-2.42,8.77-2.42,2.79,0,5.23.55,7.34,1.64,2.1,1.09,3.74,2.47,4.92,4.14,1.17,1.67,1.95,3.37,2.34,5.12h11.88c-.49-3.39-1.8-6.75-3.93-10.08-2.13-3.33-5.07-6.11-8.81-8.32-3.74-2.21-8.15-3.32-13.23-3.32-5.85,0-11.01,1.34-15.49,4.02-4.48,2.68-7.95,6.23-10.41,10.65-2.46,4.43-3.74,9.21-3.85,14.34-.11,5.46.98,10.45,3.28,14.96,2.29,4.51,5.63,8.06,10,10.65,4.37,2.59,9.45,3.89,15.24,3.89,5.35,0,10.11-1.19,14.26-3.57,2.38-1.36,4.46-2.97,6.26-4.82"/>
  <path class="cls-1" d="M97.2,99.48c2.1-1.23,4.49-1.84,7.17-1.84,2.18,0,4.15.44,5.9,1.31,1.75.88,3.18,2.01,4.3,3.4,1.12,1.39,1.82,2.88,2.09,4.47h11.23c-.38-3.5-1.65-6.69-3.81-9.59-2.16-2.89-4.96-5.19-8.4-6.88-3.44-1.69-7.27-2.54-11.47-2.54-4.86,0-9.17,1.03-12.91,3.07-3.74,2.05-6.67,4.82-8.77,8.32-2.1,3.5-3.21,7.35-3.32,11.56-.05,4.32.92,8.22,2.91,11.72,1.99,3.5,4.82,6.26,8.48,8.28,3.66,2.02,7.92,3.03,12.78,3.03,4.1,0,7.91-.83,11.43-2.5,3.52-1.67,6.42-3.99,8.69-6.97,2.27-2.98,3.62-6.32,4.06-10.04h-10.9c-.82,2.79-2.37,5.09-4.63,6.92-2.27,1.83-5.04,2.75-8.32,2.75-2.68,0-5.03-.56-7.05-1.68-2.02-1.12-3.55-2.68-4.59-4.67-1.04-1.99-1.56-4.27-1.56-6.84.05-2.29.66-4.44,1.8-6.43,1.15-1.99,2.77-3.61,4.88-4.84"/>
  <path class="cls-1" d="M172.47,90.83c-3.83-2.02-8.2-3.03-13.11-3.03s-9.06,1.01-12.91,3.03c-3.85,2.02-6.88,4.78-9.1,8.28-2.21,3.5-3.35,7.38-3.4,11.64.05,4.21,1.16,8.07,3.32,11.6,2.16,3.52,5.15,6.31,8.97,8.36,3.82,2.05,8.11,3.07,12.87,3.07s9.14-1.03,12.99-3.07c3.85-2.05,6.87-4.84,9.06-8.36,2.18-3.52,3.3-7.39,3.36-11.6,0-4.26-1.05-8.14-3.15-11.64-2.1-3.5-5.07-6.26-8.89-8.28M170.79,117.47c-1.18,2.02-2.8,3.62-4.88,4.79-2.08,1.18-4.43,1.76-7.05,1.76s-4.88-.59-6.92-1.76c-2.05-1.17-3.62-2.77-4.71-4.79-1.09-2.02-1.61-4.26-1.56-6.72.05-2.46.68-4.71,1.89-6.76,1.2-2.05,2.84-3.66,4.92-4.84,2.08-1.17,4.43-1.76,7.05-1.76s4.93.59,6.92,1.76c1.99,1.18,3.54,2.77,4.63,4.8,1.09,2.02,1.61,4.29,1.56,6.8-.05,2.46-.67,4.7-1.84,6.72"/>
  <path class="cls-1" d="M250.08,87.8c-3.55,0-6.78.94-9.67,2.83-2.89,1.88-5.19,4.56-6.91,8.05-.67-2.21-1.6-4.12-2.84-5.71-2.68-3.44-6.58-5.16-11.72-5.16-3.61,0-6.86.94-9.75,2.83-2.26,1.47-4.17,3.45-5.74,5.91v-7.18h-12.13v42.86h12.13v-19.75c.11-4.7,1.22-8.37,3.32-11.02,2.1-2.65,4.85-3.97,8.24-3.97,2.62,0,4.54.93,5.74,2.79,1.2,1.86,1.8,4.43,1.8,7.7v24.26h12.13v-19.75c.11-4.75,1.17-8.44,3.2-11.06,2.02-2.62,4.72-3.93,8.11-3.93,2.68,0,4.63.89,5.86,2.66,1.23,1.78,1.84,4.39,1.84,7.83v24.26h12.21v-25.65c0-6.01-1.35-10.64-4.06-13.89-2.7-3.25-6.63-4.88-11.76-4.88"/>
  <path class="cls-1" d="M321.46,110.83c.05-3.99-.85-7.74-2.7-11.27-1.86-3.52-4.62-6.36-8.28-8.52-3.66-2.16-8.06-3.24-13.2-3.24-4.7,0-8.93,1.04-12.7,3.11-3.77,2.08-6.72,4.86-8.85,8.36-2.13,3.5-3.22,7.32-3.28,11.47-.11,4.43.86,8.39,2.91,11.88,2.05,3.5,4.96,6.23,8.73,8.2,3.77,1.97,8.14,2.95,13.11,2.95,4.43,0,8.55-.86,12.38-2.58,3.82-1.72,6.86-3.97,9.1-6.76l-8.85-5.33c-1.31,1.48-3.03,2.7-5.16,3.69-2.13.98-4.48,1.47-7.05,1.47-3.77,0-6.87-.87-9.3-2.62-2.43-1.75-3.76-4.12-3.97-7.13h36.63c.22-.6.38-1.83.49-3.69M284.5,107.22c.77-3.06,2.32-5.5,4.67-7.34,2.35-1.83,5.19-2.74,8.52-2.74,2.4,0,4.49.48,6.27,1.43,1.77.96,3.15,2.2,4.14,3.73.98,1.53,1.5,3.17,1.56,4.92h-25.16Z"/>
  <path class="cls-1" d="M15.07,120.5v48.1h36.33v-84.43c-20.07,0-36.33,16.27-36.33,36.33"/>
  <path class="cls-1" d="M51.4,21.46H15.07v62.71c20.07,0,36.33-16.27,36.33-36.33v-26.38Z"/>
</svg>