<?xml version="1.0" encoding="UTF-8"?>
<svg id="logos" xmlns="http://www.w3.org/2000/svg" viewBox="0 0 336.53 190.21">
  <defs>
    <style>
      .cls-1 {
        fill: #fff;
      }
    </style>
  </defs>
  <path class="cls-1" d="M161.81,87.6c-1.97,3.54-2.99,7.36-3.08,11.46-.09,4.36.79,8.35,2.62,11.95,1.83,3.6,4.5,6.44,7.99,8.51s7.55,3.11,12.18,3.11c4.28,0,8.07-.95,11.39-2.85,1.84-1.05,3.44-2.3,4.85-3.72v6.47h7.19v-24.68h-7.19v.1h-16.76v6.68h13.13c-.39,1.36-.95,2.63-1.74,3.77-1.22,1.77-2.77,3.14-4.65,4.12-1.88.98-3.95,1.47-6.22,1.47-2.62,0-4.93-.63-6.94-1.9-2.01-1.26-3.55-3.03-4.62-5.3-1.07-2.27-1.56-4.85-1.47-7.73.13-2.71.75-5.16,1.87-7.36,1.11-2.2,2.69-3.95,4.75-5.24,2.05-1.29,4.39-1.93,7.01-1.93,2.23,0,4.18.44,5.86,1.31,1.68.87,2.99,1.98,3.93,3.31.94,1.33,1.56,2.7,1.87,4.09h9.49c-.39-2.7-1.44-5.39-3.14-8.05-1.7-2.66-4.05-4.88-7.04-6.65-2.99-1.77-6.52-2.65-10.57-2.65-4.67,0-8.8,1.07-12.37,3.21-3.58,2.14-6.35,4.98-8.32,8.51"/>
  <path class="cls-1" d="M105.48,95.13c-6.21,0-11.24,5.03-11.24,11.24v14.88h11.24v-26.12Z"/>
  <path class="cls-1" d="M94.24,95.13c6.21,0,11.24-5.03,11.24-11.24v-8.16h-11.24v19.4Z"/>
  <polygon class="cls-1" points="121.87 121.38 121.87 90.41 143.48 121.38 153.3 121.38 153.3 75.88 143.94 75.88 143.94 107.5 121.87 75.88 112.38 75.88 112.38 121.38 121.87 121.38"/>
</svg>